<?xml version="1.0" encoding="UTF-8" standalone="no"?>
<!-- Created with Inkscape (http://www.inkscape.org/) -->

<svg
   xmlns:dc="http://purl.org/dc/elements/1.1/"
   xmlns:cc="http://creativecommons.org/ns#"
   xmlns:rdf="http://www.w3.org/1999/02/22-rdf-syntax-ns#"
   xmlns:svg="http://www.w3.org/2000/svg"
   xmlns="http://www.w3.org/2000/svg"
   xmlns:xlink="http://www.w3.org/1999/xlink"
   xmlns:sodipodi="http://sodipodi.sourceforge.net/DTD/sodipodi-0.dtd"
   xmlns:inkscape="http://www.inkscape.org/namespaces/inkscape"
   width="3840"
   height="2160"
   viewBox="0 0 1016 571.50002"
   version="1.1"
   id="svg8"
   inkscape:export-filename="/home/isaac/Dropbox/Linux Wallpapers/Arch/Arch Arc Dark 4K Glow.png"
   inkscape:export-xdpi="96"
   inkscape:export-ydpi="96"
   sodipodi:docname="Elementary palette.svg"
   inkscape:version="0.92.3 (2405546, 2018-03-11)">
  <defs
     id="defs2">
    <linearGradient
       gradientTransform="translate(287,-83)"
       gradientUnits="userSpaceOnUse"
       id="path1082_2_"
       y2="129.3468"
       x2="112.49853"
       y1="6.1372099"
       x1="112.49854">
      <stop
         offset="0"
         style="stop-color:#ffffff;stop-opacity:0"
         id="stop193" />
      <stop
         offset="1"
         style="stop-color:#ffffff;stop-opacity:0.27450982"
         id="stop195" />
      <midPointStop
         id="midPointStop197"
         style="stop-color:#FFFFFF"
         offset="0" />
      <midPointStop
         id="midPointStop199"
         style="stop-color:#FFFFFF"
         offset="0.5" />
      <midPointStop
         id="midPointStop201"
         style="stop-color:#000000"
         offset="1" />
    </linearGradient>
    <linearGradient
       gradientTransform="matrix(-0.3937741,0,0,0.393752,357.51969,122.00151)"
       gradientUnits="userSpaceOnUse"
       xlink:href="#path1082_2_"
       id="linearGradient2544"
       y2="303.14029"
       x2="606.91248"
       y1="104.50665"
       x1="541.33502" />
    <linearGradient
       id="linearGradient3388">
      <stop
         offset="0"
         style="stop-color:#000000;stop-opacity:0"
         id="stop3390" />
      <stop
         offset="1"
         style="stop-color:#000000;stop-opacity:0.37113401"
         id="stop3392" />
    </linearGradient>
    <linearGradient
       gradientTransform="matrix(0.749107,0,0,0.749107,-35.459862,91.44108)"
       gradientUnits="userSpaceOnUse"
       xlink:href="#linearGradient3388"
       id="linearGradient4416"
       y2="183.9644"
       x2="490.72305"
       y1="237.72447"
       x1="490.72305" />
    <inkscape:path-effect
       effect="spiro"
       id="path-effect2991"
       is_visible="true" />
    <inkscape:path-effect
       is_visible="true"
       id="path-effect3177"
       effect="spiro" />
    <filter
       inkscape:collect="always"
       style="color-interpolation-filters:sRGB"
       id="filter1235"
       x="-0.108"
       width="1.216"
       y="-0.108"
       height="1.216">
      <feGaussianBlur
         inkscape:collect="always"
         stdDeviation="27"
         id="feGaussianBlur1237" />
    </filter>
  </defs>
  <sodipodi:namedview
     id="base"
     pagecolor="#ffffff"
     bordercolor="#666666"
     borderopacity="1.0"
     inkscape:pageopacity="0.0"
     inkscape:pageshadow="2"
     inkscape:zoom="0.38564815"
     inkscape:cx="839.75031"
     inkscape:cy="976.27851"
     inkscape:document-units="mm"
     inkscape:current-layer="layer1"
     showgrid="false"
     units="px"
     inkscape:window-width="1920"
     inkscape:window-height="1020"
     inkscape:window-x="0"
     inkscape:window-y="0"
     inkscape:window-maximized="1" />
  <metadata
     id="metadata5">
    <rdf:RDF>
      <cc:Work
         rdf:about="">
        <dc:format>image/svg+xml</dc:format>
        <dc:type
           rdf:resource="http://purl.org/dc/dcmitype/StillImage" />
        <dc:title></dc:title>
      </cc:Work>
    </rdf:RDF>
  </metadata>
  <g
     inkscape:label="Layer 1"
     inkscape:groupmode="layer"
     id="layer1"
     transform="translate(0,274.50016)">
    <g
       id="layer1-3"
       inkscape:label="Layer 1"
       transform="translate(-309.18452,-325.81554)">
      <g
         transform="translate(76.35119,145.14286)"
         id="g932">
        <rect
           style="opacity:1;fill:#5294e2;fill-opacity:1;stroke:none;stroke-width:0.29104167;stroke-miterlimit:4;stroke-dasharray:none;stroke-opacity:1"
           id="rect32"
           width="52.160713"
           height="96.005951"
           x="-77.863091"
           y="-93.827377" />
        <rect
           style="opacity:1;fill:#404552;fill-opacity:1;stroke:none;stroke-width:0.29104167;stroke-miterlimit:4;stroke-dasharray:none;stroke-opacity:1"
           id="rect32-3"
           width="52.160713"
           height="96.005951"
           x="-25.702377"
           y="-93.827377" />
        <rect
           style="opacity:1;fill:#383c4a;fill-opacity:1;stroke:none;stroke-width:0.29104167;stroke-miterlimit:4;stroke-dasharray:none;stroke-opacity:1"
           id="rect32-7"
           width="52.160713"
           height="96.005951"
           x="26.458336"
           y="-93.827377" />
        <rect
           style="opacity:1;fill:#4b5162;fill-opacity:1;stroke:none;stroke-width:0.29104167;stroke-miterlimit:4;stroke-dasharray:none;stroke-opacity:1"
           id="rect32-5"
           width="52.160713"
           height="96.005951"
           x="78.619049"
           y="-93.827377" />
        <rect
           style="opacity:1;fill:#7c818c;fill-opacity:1;stroke:none;stroke-width:0.29104167;stroke-miterlimit:4;stroke-dasharray:none;stroke-opacity:1"
           id="rect32-35"
           width="52.160713"
           height="96.005951"
           x="130.77975"
           y="-93.827377" />
        <rect
           style="opacity:1;fill:#45b1ea;fill-opacity:1;stroke:none;stroke-width:0.29104167;stroke-miterlimit:4;stroke-dasharray:none;stroke-opacity:1"
           id="rect32-6"
           width="52.160713"
           height="96.005951"
           x="-130.0238"
           y="-93.827377" />
        <rect
           style="opacity:1;fill:#6ba4e7;fill-opacity:1;stroke:none;stroke-width:0.29104167;stroke-miterlimit:4;stroke-dasharray:none;stroke-opacity:1"
           id="rect32-2"
           width="52.160713"
           height="96.005951"
           x="130.77975"
           y="2.1785736" />
        <rect
           style="opacity:1;fill:#5b8cc5;fill-opacity:1;stroke:none;stroke-width:0.29104167;stroke-miterlimit:4;stroke-dasharray:none;stroke-opacity:1"
           id="rect32-9"
           width="52.160713"
           height="96.005951"
           x="78.619049"
           y="2.1785736" />
        <rect
           style="opacity:1;fill:#ffffff;fill-opacity:1;stroke:none;stroke-width:0.29104167;stroke-miterlimit:4;stroke-dasharray:none;stroke-opacity:1"
           id="rect32-1"
           width="52.160713"
           height="96.005951"
           x="26.458344"
           y="2.1785736" />
        <rect
           style="opacity:1;fill:#f3f4f5;fill-opacity:1;stroke:none;stroke-width:0.29104167;stroke-miterlimit:4;stroke-dasharray:none;stroke-opacity:1"
           id="rect32-27"
           width="52.160713"
           height="96.005951"
           x="-25.702362"
           y="2.1785736" />
        <rect
           style="opacity:1;fill:#f5f6f7;fill-opacity:1;stroke:none;stroke-width:0.29104167;stroke-miterlimit:4;stroke-dasharray:none;stroke-opacity:1"
           id="rect32-0"
           width="52.160713"
           height="96.005951"
           x="-130.02377"
           y="2.1785736" />
        <rect
           style="opacity:1;fill:#cfd6e6;fill-opacity:1;stroke:none;stroke-width:0.29104167;stroke-miterlimit:4;stroke-dasharray:none;stroke-opacity:1"
           id="rect32-93"
           width="52.160713"
           height="96.005951"
           x="-77.863068"
           y="2.1785736" />
      </g>
    </g>
    <rect
       style="opacity:1;fill:#383c4a;fill-opacity:1;stroke:none;stroke-width:1.8659116;stroke-miterlimit:4;stroke-dasharray:none;stroke-opacity:1"
       id="rect42"
       width="1016"
       height="571.5"
       x="-1.1368684e-13"
       y="-274.50064"
       inkscape:export-xdpi="96"
       inkscape:export-ydpi="96"
       inkscape:export-filename="/home/isaac/Dropbox/Linux Wallpapers/Debian/Debian Arc Dark Flat 4K.png" />
    <g
       transform="matrix(0.31489545,0,0,0.31489545,382.04182,-194.17604)"
       id="layer1-9"
       inkscape:label="Layer 1"
       style="fill:#6ba4e7;fill-opacity:1">
      <path
         id="path2993"
         transform="translate(0,252.36218)"
         d="M 400,100 C 234.31458,100 100,234.31458 100,400 100,565.68542 234.31458,700 400,700 565.68542,700 700,565.68542 700,400 700,234.31458 565.68542,100 400,100 Z m 0,25 c 125.96744,0 232.15388,84.69851 264.71875,200.25 -28.04815,57.85233 -67.95864,109.93982 -116.5625,152.03125 -23.34873,20.22023 -48.84084,38.24566 -77,50.9375 -28.15915,12.69184 -59.13218,19.89338 -89.96875,18.125 -23.16814,-1.32862 -46.05453,-7.78235 -66.34375,-19.03125 53.77011,-29.13615 102.28589,-67.98342 142,-114.5 26.06753,-30.53253 48.87464,-65.23184 57.65625,-104.40625 4.39081,-19.58721 5.13488,-40.10062 1.03125,-59.75 -4.10363,-19.64938 -13.18869,-38.3744 -26.9375,-53 -13.43177,-14.28834 -31.06457,-24.40957 -49.96875,-29.625 -18.90419,-5.21543 -39.02156,-5.61917 -58.3125,-2.09375 -38.58188,7.05084 -73.02846,29.47402 -100.65625,57.3125 -48.698,49.06936 -78.80363,118.3072 -73.28125,187.21875 2.76118,34.45577 14.3078,68.31298 34.09375,96.65625 4.41651,6.32662 9.27188,12.35256 14.46875,18.0625 C 226.11357,533.27523 196.26878,540.45584 166,544.5 140.01219,502.50734 125,453.01265 125,400 125,248.12169 248.12169,125 400,125 Z m 1.75,55.5625 c 19.33142,0.0262 38.79415,5.87852 54.21875,17.53125 13.89679,10.49852 24.19392,25.43444 30.03125,41.84375 5.83733,16.4093 7.33536,34.22884 5.34375,51.53125 -3.98322,34.6048 -21.44034,66.34009 -42.53125,94.0625 -37.34406,49.08595 -86.98181,88.37335 -142.1875,115.875 -5.65074,2.81501 -11.39103,5.49065 -17.15625,8.0625 -12.01233,-10.51191 -22.30821,-22.97966 -30.15625,-36.875 -16.39874,-29.03476 -21.8066,-63.52517 -18.625,-96.71875 3.1816,-33.19357 14.5728,-65.18517 29.875,-94.8125 17.74222,-34.35158 41.92637,-66.88993 75.78125,-85.5625 16.92744,-9.33629 36.07483,-14.9637 55.40625,-14.9375 z m 270.78125,182.625 C 674.14242,375.22998 675,387.51657 675,400 c 0,151.87831 -123.12169,275 -275,275 -85.29641,0 -161.52774,-38.82999 -211.96875,-99.78125 31.13362,-7.07108 61.56295,-17.22782 90.75,-30.15625 12.76371,9.72047 26.85974,17.69299 41.84375,23.4375 43.15102,16.54306 92.14184,14.14935 135.8125,-0.96875 43.67065,-15.11809 82.39669,-42.25343 116.15625,-73.8125 40.21639,-37.59502 74.12408,-81.90709 99.9375,-130.53125 z"
         style="fill:#6ba4e7;fill-opacity:1;stroke:none;stroke-width:7.5;stroke-linejoin:round;stroke-miterlimit:4;stroke-dasharray:none;stroke-dashoffset:0;stroke-opacity:1"
         inkscape:connector-curvature="0" />
    </g>
    <g
       transform="matrix(0.31489544,0,0,0.31489544,-272.47318,-144.0926)"
       id="layer1-9-2"
       inkscape:label="Layer 1"
       style="fill:#6ba4e7;fill-opacity:1;filter:url(#filter1235)">
      <path
         id="path2993-0"
         transform="translate(0,252.36218)"
         d="M 400,100 C 234.31458,100 100,234.31458 100,400 100,565.68542 234.31458,700 400,700 565.68542,700 700,565.68542 700,400 700,234.31458 565.68542,100 400,100 Z m 0,25 c 125.96744,0 232.15388,84.69851 264.71875,200.25 -28.04815,57.85233 -67.95864,109.93982 -116.5625,152.03125 -23.34873,20.22023 -48.84084,38.24566 -77,50.9375 -28.15915,12.69184 -59.13218,19.89338 -89.96875,18.125 -23.16814,-1.32862 -46.05453,-7.78235 -66.34375,-19.03125 53.77011,-29.13615 102.28589,-67.98342 142,-114.5 26.06753,-30.53253 48.87464,-65.23184 57.65625,-104.40625 4.39081,-19.58721 5.13488,-40.10062 1.03125,-59.75 -4.10363,-19.64938 -13.18869,-38.3744 -26.9375,-53 -13.43177,-14.28834 -31.06457,-24.40957 -49.96875,-29.625 -18.90419,-5.21543 -39.02156,-5.61917 -58.3125,-2.09375 -38.58188,7.05084 -73.02846,29.47402 -100.65625,57.3125 -48.698,49.06936 -78.80363,118.3072 -73.28125,187.21875 2.76118,34.45577 14.3078,68.31298 34.09375,96.65625 4.41651,6.32662 9.27188,12.35256 14.46875,18.0625 C 226.11357,533.27523 196.26878,540.45584 166,544.5 140.01219,502.50734 125,453.01265 125,400 125,248.12169 248.12169,125 400,125 Z m 1.75,55.5625 c 19.33142,0.0262 38.79415,5.87852 54.21875,17.53125 13.89679,10.49852 24.19392,25.43444 30.03125,41.84375 5.83733,16.4093 7.33536,34.22884 5.34375,51.53125 -3.98322,34.6048 -21.44034,66.34009 -42.53125,94.0625 -37.34406,49.08595 -86.98181,88.37335 -142.1875,115.875 -5.65074,2.81501 -11.39103,5.49065 -17.15625,8.0625 -12.01233,-10.51191 -22.30821,-22.97966 -30.15625,-36.875 -16.39874,-29.03476 -21.8066,-63.52517 -18.625,-96.71875 3.1816,-33.19357 14.5728,-65.18517 29.875,-94.8125 17.74222,-34.35158 41.92637,-66.88993 75.78125,-85.5625 16.92744,-9.33629 36.07483,-14.9637 55.40625,-14.9375 z m 270.78125,182.625 C 674.14242,375.22998 675,387.51657 675,400 c 0,151.87831 -123.12169,275 -275,275 -85.29641,0 -161.52774,-38.82999 -211.96875,-99.78125 31.13362,-7.07108 61.56295,-17.22782 90.75,-30.15625 12.76371,9.72047 26.85974,17.69299 41.84375,23.4375 43.15102,16.54306 92.14184,14.14935 135.8125,-0.96875 43.67065,-15.11809 82.39669,-42.25343 116.15625,-73.8125 40.21639,-37.59502 74.12408,-81.90709 99.9375,-130.53125 z"
         style="fill:#6ba4e7;fill-opacity:1;stroke:none;stroke-width:7.5;stroke-linejoin:round;stroke-miterlimit:4;stroke-dasharray:none;stroke-dashoffset:0;stroke-opacity:1"
         inkscape:connector-curvature="0" />
    </g>
  </g>
</svg>
