<?xml version="1.0" encoding="UTF-8" standalone="no"?>
<!-- Created with Inkscape (http://www.inkscape.org/) -->

<svg
   xmlns:dc="http://purl.org/dc/elements/1.1/"
   xmlns:cc="http://creativecommons.org/ns#"
   xmlns:rdf="http://www.w3.org/1999/02/22-rdf-syntax-ns#"
   xmlns:svg="http://www.w3.org/2000/svg"
   xmlns="http://www.w3.org/2000/svg"
   xmlns:xlink="http://www.w3.org/1999/xlink"
   xmlns:sodipodi="http://sodipodi.sourceforge.net/DTD/sodipodi-0.dtd"
   xmlns:inkscape="http://www.inkscape.org/namespaces/inkscape"
   width="3840"
   height="2160"
   viewBox="0 0 1016 571.50002"
   version="1.1"
   id="svg8"
   inkscape:export-filename="/home/isaac/Dropbox/Linux Wallpapers/Arch/Arch Arc Dark 4K Glow.png"
   inkscape:export-xdpi="96"
   inkscape:export-ydpi="96"
   inkscape:version="0.92.3 (2405546, 2018-03-11)"
   sodipodi:docname="Arch palette.svg">
  <defs
     id="defs2">
    <linearGradient
       gradientTransform="translate(287,-83)"
       gradientUnits="userSpaceOnUse"
       id="path1082_2_"
       y2="129.3468"
       x2="112.49853"
       y1="6.1372099"
       x1="112.49854">
      <stop
         offset="0"
         style="stop-color:#ffffff;stop-opacity:0"
         id="stop193" />
      <stop
         offset="1"
         style="stop-color:#ffffff;stop-opacity:0.27450982"
         id="stop195" />
      <midPointStop
         id="midPointStop197"
         style="stop-color:#FFFFFF"
         offset="0" />
      <midPointStop
         id="midPointStop199"
         style="stop-color:#FFFFFF"
         offset="0.5" />
      <midPointStop
         id="midPointStop201"
         style="stop-color:#000000"
         offset="1" />
    </linearGradient>
    <linearGradient
       gradientTransform="matrix(-0.3937741,0,0,0.393752,357.51969,122.00151)"
       gradientUnits="userSpaceOnUse"
       xlink:href="#path1082_2_"
       id="linearGradient2544"
       y2="303.14029"
       x2="606.91248"
       y1="104.50665"
       x1="541.33502" />
    <linearGradient
       id="linearGradient3388">
      <stop
         offset="0"
         style="stop-color:#000000;stop-opacity:0"
         id="stop3390" />
      <stop
         offset="1"
         style="stop-color:#000000;stop-opacity:0.37113401"
         id="stop3392" />
    </linearGradient>
    <linearGradient
       gradientTransform="matrix(0.749107,0,0,0.749107,-35.459862,91.44108)"
       gradientUnits="userSpaceOnUse"
       xlink:href="#linearGradient3388"
       id="linearGradient4416"
       y2="183.9644"
       x2="490.72305"
       y1="237.72447"
       x1="490.72305" />
    <filter
       inkscape:collect="always"
       style="color-interpolation-filters:sRGB"
       id="filter970"
       x="-0.096009036"
       width="1.1920181"
       y="-0.095990966"
       height="1.1919819">
      <feGaussianBlur
         inkscape:collect="always"
         stdDeviation="9.0483704"
         id="feGaussianBlur972" />
    </filter>
  </defs>
  <sodipodi:namedview
     id="base"
     pagecolor="#ffffff"
     bordercolor="#666666"
     borderopacity="1.0"
     inkscape:pageopacity="0.0"
     inkscape:pageshadow="2"
     inkscape:zoom="0.38564815"
     inkscape:cx="988.79365"
     inkscape:cy="1080"
     inkscape:document-units="mm"
     inkscape:current-layer="g2424"
     showgrid="false"
     units="px"
     inkscape:window-width="1920"
     inkscape:window-height="1020"
     inkscape:window-x="0"
     inkscape:window-y="0"
     inkscape:window-maximized="1" />
  <metadata
     id="metadata5">
    <rdf:RDF>
      <cc:Work
         rdf:about="">
        <dc:format>image/svg+xml</dc:format>
        <dc:type
           rdf:resource="http://purl.org/dc/dcmitype/StillImage" />
        <dc:title></dc:title>
      </cc:Work>
    </rdf:RDF>
  </metadata>
  <g
     inkscape:label="Layer 1"
     inkscape:groupmode="layer"
     id="layer1"
     transform="translate(0,274.50016)">
    <g
       id="layer1-3"
       inkscape:label="Layer 1"
       transform="translate(-309.18452,-325.81554)">
      <g
         transform="translate(76.35119,145.14286)"
         id="g932">
        <rect
           style="opacity:1;fill:#5294e2;fill-opacity:1;stroke:none;stroke-width:0.29104167;stroke-miterlimit:4;stroke-dasharray:none;stroke-opacity:1"
           id="rect32"
           width="52.160713"
           height="96.005951"
           x="-77.863091"
           y="-93.827377" />
        <rect
           style="opacity:1;fill:#404552;fill-opacity:1;stroke:none;stroke-width:0.29104167;stroke-miterlimit:4;stroke-dasharray:none;stroke-opacity:1"
           id="rect32-3"
           width="52.160713"
           height="96.005951"
           x="-25.702377"
           y="-93.827377" />
        <rect
           style="opacity:1;fill:#383c4a;fill-opacity:1;stroke:none;stroke-width:0.29104167;stroke-miterlimit:4;stroke-dasharray:none;stroke-opacity:1"
           id="rect32-7"
           width="52.160713"
           height="96.005951"
           x="26.458336"
           y="-93.827377" />
        <rect
           style="opacity:1;fill:#4b5162;fill-opacity:1;stroke:none;stroke-width:0.29104167;stroke-miterlimit:4;stroke-dasharray:none;stroke-opacity:1"
           id="rect32-5"
           width="52.160713"
           height="96.005951"
           x="78.619049"
           y="-93.827377" />
        <rect
           style="opacity:1;fill:#7c818c;fill-opacity:1;stroke:none;stroke-width:0.29104167;stroke-miterlimit:4;stroke-dasharray:none;stroke-opacity:1"
           id="rect32-35"
           width="52.160713"
           height="96.005951"
           x="130.77975"
           y="-93.827377" />
        <rect
           style="opacity:1;fill:#45b1ea;fill-opacity:1;stroke:none;stroke-width:0.29104167;stroke-miterlimit:4;stroke-dasharray:none;stroke-opacity:1"
           id="rect32-6"
           width="52.160713"
           height="96.005951"
           x="-130.0238"
           y="-93.827377" />
        <rect
           style="opacity:1;fill:#6ba4e7;fill-opacity:1;stroke:none;stroke-width:0.29104167;stroke-miterlimit:4;stroke-dasharray:none;stroke-opacity:1"
           id="rect32-2"
           width="52.160713"
           height="96.005951"
           x="130.77975"
           y="2.1785736" />
        <rect
           style="opacity:1;fill:#5b8cc5;fill-opacity:1;stroke:none;stroke-width:0.29104167;stroke-miterlimit:4;stroke-dasharray:none;stroke-opacity:1"
           id="rect32-9"
           width="52.160713"
           height="96.005951"
           x="78.619049"
           y="2.1785736" />
        <rect
           style="opacity:1;fill:#ffffff;fill-opacity:1;stroke:none;stroke-width:0.29104167;stroke-miterlimit:4;stroke-dasharray:none;stroke-opacity:1"
           id="rect32-1"
           width="52.160713"
           height="96.005951"
           x="26.458344"
           y="2.1785736" />
        <rect
           style="opacity:1;fill:#f3f4f5;fill-opacity:1;stroke:none;stroke-width:0.29104167;stroke-miterlimit:4;stroke-dasharray:none;stroke-opacity:1"
           id="rect32-27"
           width="52.160713"
           height="96.005951"
           x="-25.702362"
           y="2.1785736" />
        <rect
           style="opacity:1;fill:#f5f6f7;fill-opacity:1;stroke:none;stroke-width:0.29104167;stroke-miterlimit:4;stroke-dasharray:none;stroke-opacity:1"
           id="rect32-0"
           width="52.160713"
           height="96.005951"
           x="-130.02377"
           y="2.1785736" />
        <rect
           style="opacity:1;fill:#cfd6e6;fill-opacity:1;stroke:none;stroke-width:0.29104167;stroke-miterlimit:4;stroke-dasharray:none;stroke-opacity:1"
           id="rect32-93"
           width="52.160713"
           height="96.005951"
           x="-77.863068"
           y="2.1785736" />
      </g>
    </g>
    <rect
       style="opacity:1;fill:#383c4a;fill-opacity:1;stroke:none;stroke-width:1.86591339;stroke-miterlimit:4;stroke-dasharray:none;stroke-opacity:1"
       id="rect42"
       width="1016"
       height="571.5"
       x="-1.1368684e-13"
       y="-274.50015" />
    <g
       id="layer1-5"
       transform="matrix(0.8878616,0,0,0.8878616,120.36282,-207.62683)">
      <g
         id="g2424"
         transform="matrix(0.8746356,0,0,0.8746356,102.04864,35.772582)">
        <path
           style="fill:#6ba4e7;fill-opacity:1;fill-rule:evenodd;stroke:none;stroke-width:1.36129713;filter:url(#filter970)"
           id="path2518-6"
           d="m 382.47834,127.84059 c -10.06934,24.68733 -16.14267,40.83575 -27.35356,64.78923 6.87367,7.28609 15.31079,15.77112 29.01264,25.35415 -14.73083,-6.06165 -24.77906,-12.14739 -32.28827,-18.46259 -14.34779,29.93889 -36.82667,72.58551 -82.44355,154.54976 35.85333,-20.69874 63.6462,-33.45975 89.54782,-38.32901 -1.11222,-4.78368 -1.74457,-9.95814 -1.70163,-15.35713 l 0.0425,-1.1486 c 0.56891,-22.97028 12.51803,-40.63444 26.67292,-39.43508 14.15488,1.19935 25.15733,20.80391 24.58843,43.77421 -0.10704,4.32228 -0.59453,8.48027 -1.44638,12.33675 25.6204,5.01181 53.11608,17.74014 88.48431,38.15886 -6.97393,-12.83948 -13.19876,-24.41334 -19.14324,-35.43626 -9.36354,-7.25736 -19.13016,-16.70284 -39.05221,-26.92815 13.69327,3.55808 23.49748,7.66317 31.13967,12.25167 -60.43925,-112.52733 -65.33354,-127.47988 -86.0595,-176.11781 z"
           inkscape:connector-curvature="0" />
        <path
           style="fill:#6ba4e7;fill-opacity:1;fill-rule:evenodd;stroke:none;stroke-width:1.36129713"
           id="path2518"
           d="m 382.47835,127.84059 c -10.06934,24.68733 -16.14267,40.83575 -27.35356,64.78923 6.87367,7.28609 15.31079,15.77112 29.01264,25.35415 -14.73083,-6.06165 -24.77906,-12.14739 -32.28827,-18.46259 -14.34779,29.93889 -36.82667,72.58551 -82.44355,154.54976 35.85333,-20.69874 63.6462,-33.45975 89.54782,-38.32901 -1.11222,-4.78368 -1.74457,-9.95814 -1.70163,-15.35713 l 0.0425,-1.1486 c 0.56891,-22.97028 12.51803,-40.63444 26.67292,-39.43508 14.15488,1.19935 25.15733,20.80391 24.58843,43.77421 -0.10704,4.32228 -0.59453,8.48027 -1.44638,12.33675 25.6204,5.01181 53.11608,17.74014 88.48431,38.15886 -6.97393,-12.83948 -13.19876,-24.41334 -19.14324,-35.43626 -9.36354,-7.25736 -19.13016,-16.70284 -39.05221,-26.92815 13.69327,3.55808 23.49748,7.66317 31.13967,12.25167 C 408.09855,191.43107 403.20426,176.47852 382.4783,127.84059 Z"
           inkscape:connector-curvature="0" />
      </g>
    </g>
  </g>
</svg>
