<?xml version="1.0" encoding="UTF-8" standalone="no"?>
<!-- Created with Inkscape (http://www.inkscape.org/) -->

<svg
   xmlns:dc="http://purl.org/dc/elements/1.1/"
   xmlns:cc="http://creativecommons.org/ns#"
   xmlns:rdf="http://www.w3.org/1999/02/22-rdf-syntax-ns#"
   xmlns:svg="http://www.w3.org/2000/svg"
   xmlns="http://www.w3.org/2000/svg"
   xmlns:xlink="http://www.w3.org/1999/xlink"
   xmlns:sodipodi="http://sodipodi.sourceforge.net/DTD/sodipodi-0.dtd"
   xmlns:inkscape="http://www.inkscape.org/namespaces/inkscape"
   width="3840"
   height="2160"
   viewBox="0 0 1016 571.50002"
   version="1.1"
   id="svg8"
   inkscape:export-filename="/home/isaac/Dropbox/Linux Wallpapers/Arch/Arch Arc Dark 4K Glow.png"
   inkscape:export-xdpi="96"
   inkscape:export-ydpi="96"
   inkscape:version="0.92.3 (2405546, 2018-03-11)"
   sodipodi:docname="Arch palette.svg">
  <defs
     id="defs2">
    <linearGradient
       gradientTransform="translate(287,-83)"
       gradientUnits="userSpaceOnUse"
       id="path1082_2_"
       y2="129.3468"
       x2="112.49853"
       y1="6.1372099"
       x1="112.49854">
      <stop
         offset="0"
         style="stop-color:#ffffff;stop-opacity:0"
         id="stop193" />
      <stop
         offset="1"
         style="stop-color:#ffffff;stop-opacity:0.27450982"
         id="stop195" />
      <midPointStop
         id="midPointStop197"
         style="stop-color:#FFFFFF"
         offset="0" />
      <midPointStop
         id="midPointStop199"
         style="stop-color:#FFFFFF"
         offset="0.5" />
      <midPointStop
         id="midPointStop201"
         style="stop-color:#000000"
         offset="1" />
    </linearGradient>
    <linearGradient
       gradientTransform="matrix(-0.3937741,0,0,0.393752,357.51969,122.00151)"
       gradientUnits="userSpaceOnUse"
       xlink:href="#path1082_2_"
       id="linearGradient2544"
       y2="303.14029"
       x2="606.91248"
       y1="104.50665"
       x1="541.33502" />
    <linearGradient
       id="linearGradient3388">
      <stop
         offset="0"
         style="stop-color:#000000;stop-opacity:0"
         id="stop3390" />
      <stop
         offset="1"
         style="stop-color:#000000;stop-opacity:0.37113401"
         id="stop3392" />
    </linearGradient>
    <linearGradient
       gradientTransform="matrix(0.749107,0,0,0.749107,-35.459862,91.44108)"
       gradientUnits="userSpaceOnUse"
       xlink:href="#linearGradient3388"
       id="linearGradient4416"
       y2="183.9644"
       x2="490.72305"
       y1="237.72447"
       x1="490.72305" />
    <filter
       inkscape:collect="always"
       style="color-interpolation-filters:sRGB"
       id="filter970"
       x="-0.096009036"
       width="1.1920181"
       y="-0.095990966"
       height="1.1919819">
      <feGaussianBlur
         inkscape:collect="always"
         stdDeviation="9.0483704"
         id="feGaussianBlur972" />
    </filter>
  </defs>
  <sodipodi:namedview
     id="base"
     pagecolor="#ffffff"
     bordercolor="#666666"
     borderopacity="1.0"
     inkscape:pageopacity="0.0"
     inkscape:pageshadow="2"
     inkscape:zoom="0.27501425"
     inkscape:cx="1332.8572"
     inkscape:cy="965.67882"
     inkscape:document-units="mm"
     inkscape:current-layer="g2424"
     showgrid="false"
     units="px"
     inkscape:window-width="1920"
     inkscape:window-height="1020"
     inkscape:window-x="0"
     inkscape:window-y="0"
     inkscape:window-maximized="1" />
  <metadata
     id="metadata5">
    <rdf:RDF>
      <cc:Work
         rdf:about="">
        <dc:format>image/svg+xml</dc:format>
        <dc:type
           rdf:resource="http://purl.org/dc/dcmitype/StillImage" />
        <dc:title />
      </cc:Work>
    </rdf:RDF>
  </metadata>
  <g
     inkscape:label="Layer 1"
     inkscape:groupmode="layer"
     id="layer1"
     transform="translate(0,274.50016)">
    <rect
       style="opacity:1;fill:#dedede;fill-opacity:1;stroke:none;stroke-width:1.86591339;stroke-miterlimit:4;stroke-dasharray:none;stroke-opacity:1"
       id="rect42"
       width="1016"
       height="571.5"
       x="-1.1368684e-13"
       y="-274.50015"
       inkscape:export-xdpi="96"
       inkscape:export-ydpi="96" />
    <g
       id="layer1-3"
       inkscape:label="Layer 1"
       transform="translate(-309.18452,-325.81554)">
      <g
         transform="translate(76.35119,145.14286)"
         id="g932">
        <rect
           style="opacity:1;fill:#f9f9f9;fill-opacity:1;stroke:none;stroke-width:0.29104167;stroke-miterlimit:4;stroke-dasharray:none;stroke-opacity:1"
           id="rect32"
           width="52.160713"
           height="96.005951"
           x="-77.863091"
           y="-93.827377" />
        <rect
           style="opacity:1;fill:#dedede;fill-opacity:1;stroke:none;stroke-width:0.29104167;stroke-miterlimit:4;stroke-dasharray:none;stroke-opacity:1"
           id="rect32-3"
           width="52.160713"
           height="96.005951"
           x="-25.702377"
           y="-93.827377" />
        <rect
           style="opacity:1;fill:#d64937;fill-opacity:1;stroke:none;stroke-width:0.29104167;stroke-miterlimit:4;stroke-dasharray:none;stroke-opacity:1"
           id="rect32-7"
           width="52.160713"
           height="96.005951"
           x="26.458336"
           y="-93.827377" />
        <rect
           style="opacity:1;fill:#333333;fill-opacity:1;stroke:none;stroke-width:0.29104167;stroke-miterlimit:4;stroke-dasharray:none;stroke-opacity:1"
           id="rect32-5"
           width="52.160713"
           height="96.005951"
           x="78.619049"
           y="-93.827377" />
        <rect
           style="opacity:1;fill:#2d2d2d;fill-opacity:1;stroke:none;stroke-width:0.29104167;stroke-miterlimit:4;stroke-dasharray:none;stroke-opacity:1"
           id="rect32-35"
           width="52.160713"
           height="96.005951"
           x="130.77975"
           y="-93.827377" />
      </g>
    </g>
    <rect
       style="opacity:1;fill:#333333;fill-opacity:1;stroke:none;stroke-width:1.40960276;stroke-miterlimit:4;stroke-dasharray:none;stroke-opacity:1"
       id="rect42-6"
       width="579.83466"
       height="571.5"
       x="218.08269"
       y="-274.50015"
       inkscape:export-xdpi="96"
       inkscape:export-ydpi="96" />
    <g
       id="layer1-5"
       transform="matrix(0.8878616,0,0,0.8878616,6.4744652,-250.84952)">
      <g
         id="g2424"
         transform="matrix(0.8746356,0,0,0.8746356,30.18505,59.727112)">
        <path
           style="fill:#d64937;fill-opacity:1;fill-rule:evenodd;stroke:none;stroke-width:1.36129713;filter:url(#filter970)"
           id="path2518-6"
           d="m -236.84411,148.16073 c -10.06934,24.68733 -16.14267,40.83575 -27.35356,64.78923 6.87367,7.28609 15.31079,15.77112 29.01264,25.35415 -14.73083,-6.06165 -24.77906,-12.14739 -32.28827,-18.46259 -14.34779,29.93889 -36.82667,72.58551 -82.44355,154.54976 35.85333,-20.69874 63.6462,-33.45975 89.54782,-38.32901 -1.11222,-4.78368 -1.74457,-9.95814 -1.70163,-15.35713 l 0.0425,-1.1486 c 0.56891,-22.97028 12.51803,-40.63444 26.67292,-39.43508 14.15488,1.19935 25.15733,20.80391 24.58843,43.77421 -0.10704,4.32228 -0.59453,8.48027 -1.44638,12.33675 25.6204,5.01181 53.11608,17.74014 88.48431,38.15886 -6.97393,-12.83948 -13.19876,-24.41334 -19.14324,-35.43626 -9.36354,-7.25736 -19.13016,-16.70284 -39.05221,-26.92815 13.69327,3.55808 23.49748,7.66317 31.13967,12.25167 -60.43925,-112.52733 -65.33354,-127.47988 -86.0595,-176.11781 z"
           inkscape:connector-curvature="0" />
        <path
           style="fill:#d64937;fill-opacity:1;fill-rule:evenodd;stroke:none;stroke-width:1.36129725"
           id="path2518"
           d="m 611.30081,156.11209 c -10.06934,24.68734 -16.14268,40.83574 -27.35356,64.78924 6.87366,7.28608 15.3108,15.77112 29.01264,25.35414 -14.73084,-6.06166 -24.77906,-12.1474 -32.28828,-18.4626 -14.34778,29.9389 -36.82666,72.58552 -82.44354,154.54976 35.85332,-20.69874 63.6462,-33.45974 89.54782,-38.329 -1.11222,-4.78368 -1.74458,-9.95814 -1.70164,-15.35714 l 0.0424,-1.14858 c 0.56892,-22.9703 12.51804,-40.63446 26.67292,-39.43508 14.1549,1.19934 25.15734,20.8039 24.58844,43.7742 -0.107,4.32228 -0.59454,8.48028 -1.44638,12.33674 25.6204,5.01182 53.11608,17.74014 88.4843,38.15886 -6.97392,-12.83946 -13.19876,-24.41334 -19.14324,-35.43624 -9.36354,-7.25736 -19.13016,-16.70286 -39.0522,-26.92816 13.69326,3.55808 23.49748,7.66318 31.13968,12.25168 -60.43926,-112.52734 -65.33356,-127.4799 -86.0595,-176.11782 z"
           inkscape:connector-curvature="0"
           inkscape:export-xdpi="96"
           inkscape:export-ydpi="96" />
      </g>
    </g>
  </g>
</svg>
